<?xml version="1.0" encoding="UTF-8"?>
<svg xmlns="http://www.w3.org/2000/svg" xmlns:xlink="http://www.w3.org/1999/xlink" width="1024px" height="1024px" viewBox="0 0 1024 1024" version="1.1">
<g id="surface1">
<path style=" stroke:none;fill-rule:nonzero;fill:rgb(97.647059%,32.941176%,15.686275%);fill-opacity:1;" d="M 372.535156 812.324219 L 372.535156 932.839844 L 286.167969 886.347656 L 199.800781 932.839844 L 199.800781 665.960938 L 372.535156 665.960938 Z M 372.535156 812.324219 "/>
<path style=" stroke:none;fill-rule:nonzero;fill:rgb(96.862745%,69.803922%,22.352941%);fill-opacity:1;" d="M 910.480469 665.960938 C 913.734375 693.90625 921.070312 721.464844 932.460938 747.757812 L 372.535156 747.757812 L 372.535156 665.960938 L 199.800781 665.960938 L 199.800781 747.601562 C 180.6875 746.644531 162.402344 740.988281 146.441406 731.460938 C 128.824219 721 114 705.863281 103.902344 687.191406 C 94.578125 669.988281 89.929688 651.007812 89.929688 632.046875 C 89.929688 613.0625 94.578125 594.078125 103.902344 576.90625 C 104.1875 576.390625 104.46875 575.871094 104.78125 575.355469 C 125.210938 538.910156 163.769531 516.3125 205.636719 516.3125 L 932.460938 516.3125 C 924.171875 535.425781 918.046875 555.234375 914.070312 575.355469 C 912.570312 582.898438 911.359375 590.515625 910.480469 598.136719 C 909.136719 609.394531 908.464844 620.734375 908.464844 632.046875 C 908.464844 643.386719 909.136719 654.699219 910.480469 665.960938 Z M 910.480469 665.960938 "/>
<path style=" stroke:none;fill-rule:nonzero;fill:rgb(96.862745%,69.803922%,22.352941%);fill-opacity:1;" d="M 113.507812 305.375 C 114.851562 294.117188 115.523438 282.800781 115.523438 271.464844 C 115.523438 260.152344 114.851562 248.8125 113.507812 237.550781 C 110.28125 209.605469 102.945312 182.023438 91.527344 155.730469 L 818.378906 155.730469 C 860.8125 155.730469 899.867188 178.976562 920.113281 216.296875 C 929.4375 233.496094 934.085938 252.480469 934.085938 271.464844 C 934.085938 290.421875 929.4375 309.40625 920.113281 326.605469 C 909.988281 345.28125 895.164062 360.414062 877.574219 370.875 C 859.960938 381.363281 839.609375 387.175781 818.378906 387.175781 L 91.527344 387.175781 C 102.945312 360.878906 110.28125 333.320312 113.507812 305.375 Z M 113.507812 305.375 "/>
<path style=" stroke:none;fill-rule:nonzero;fill:rgb(87.843137%,60.784314%,17.647059%);fill-opacity:1;" d="M 920.113281 216.292969 C 899.863281 178.972656 860.8125 155.726562 818.378906 155.726562 L 721.527344 155.726562 C 763.964844 155.726562 803.015625 178.972656 823.265625 216.292969 C 832.589844 233.496094 837.234375 252.476562 837.234375 271.460938 C 837.234375 290.421875 832.589844 309.402344 823.265625 326.605469 C 813.140625 345.277344 798.3125 360.410156 780.726562 370.875 C 763.113281 381.359375 742.757812 387.171875 721.527344 387.171875 L 818.378906 387.171875 C 839.609375 387.171875 859.960938 381.359375 877.574219 370.875 C 895.164062 360.414062 909.988281 345.277344 920.113281 326.605469 C 929.4375 309.402344 934.085938 290.421875 934.085938 271.460938 C 934.089844 252.480469 929.4375 233.496094 920.113281 216.292969 Z M 920.113281 216.292969 "/>
<path style=" stroke:none;fill-rule:nonzero;fill:rgb(16.862745%,64.705882%,96.862745%);fill-opacity:1;" d="M 995.171875 757.210938 C 1001.007812 763.046875 1004.625 771.132812 1004.625 780.042969 C 1004.625 797.890625 990.160156 812.324219 972.339844 812.324219 L 372.535156 812.324219 L 372.535156 747.757812 L 972.339844 747.757812 C 981.25 747.757812 989.308594 751.371094 995.171875 757.210938 Z M 995.171875 757.210938 "/>
<path style=" stroke:none;fill-rule:nonzero;fill:rgb(16.862745%,64.705882%,96.862745%);fill-opacity:1;" d="M 995.171875 461.195312 C 1001.007812 467.058594 1004.625 475.117188 1004.625 484.027344 C 1004.625 501.851562 990.160156 516.3125 972.339844 516.3125 L 205.636719 516.3125 C 163.175781 516.3125 124.125 539.558594 103.898438 576.902344 C 94.574219 594.078125 89.929688 613.0625 89.929688 632.046875 C 89.929688 651.003906 94.578125 669.988281 103.898438 687.1875 C 113.996094 705.863281 128.824219 720.996094 146.4375 731.457031 C 162.398438 740.988281 180.6875 746.644531 199.796875 747.601562 L 199.796875 812.324219 L 199.667969 812.324219 C 149.898438 812.324219 104.800781 792.152344 72.183594 759.53125 C 39.5625 726.886719 19.363281 681.84375 19.363281 632.046875 C 19.363281 532.453125 100.101562 451.742188 199.667969 451.742188 L 972.335938 451.742188 C 981.25 451.742188 989.308594 455.359375 995.171875 461.195312 Z M 995.171875 461.195312 "/>
<path style=" stroke:none;fill-rule:nonzero;fill:rgb(97.647059%,32.941176%,15.686275%);fill-opacity:1;" d="M 824.34375 91.15625 C 923.910156 91.15625 1004.621094 171.871094 1004.621094 271.460938 C 1004.621094 321.257812 984.449219 366.300781 951.828125 398.949219 C 919.210938 431.566406 874.113281 451.738281 824.34375 451.738281 L 51.648438 451.738281 C 33.828125 451.738281 19.367188 437.300781 19.367188 419.457031 C 19.367188 410.546875 22.980469 402.460938 28.820312 396.625 C 34.65625 390.785156 42.742188 387.171875 51.652344 387.171875 L 818.378906 387.171875 C 839.609375 387.171875 859.960938 381.359375 877.578125 370.871094 C 895.164062 360.410156 909.992188 345.277344 920.117188 326.601562 C 929.441406 309.398438 934.089844 290.417969 934.089844 271.460938 C 934.089844 252.476562 929.441406 233.492188 920.117188 216.292969 C 899.867188 178.96875 860.816406 155.726562 818.378906 155.726562 L 51.648438 155.726562 C 33.828125 155.726562 19.367188 141.261719 19.367188 123.441406 C 19.367188 114.53125 22.980469 106.472656 28.820312 100.609375 C 34.65625 94.773438 42.742188 91.15625 51.652344 91.15625 C 51.648438 91.15625 824.34375 91.15625 824.34375 91.15625 Z M 824.34375 91.15625 "/>
<path style=" stroke:none;fill-rule:nonzero;fill:rgb(87.843137%,60.784314%,17.647059%);fill-opacity:1;" d="M 932.460938 516.3125 C 924.171875 535.425781 918.046875 555.234375 914.070312 575.355469 L 104.777344 575.355469 C 125.207031 538.910156 163.769531 516.3125 205.636719 516.3125 Z M 932.460938 516.3125 "/>
<path style=" stroke:none;fill-rule:nonzero;fill:rgb(87.843137%,60.784314%,17.647059%);fill-opacity:1;" d="M 91.554688 155.726562 C 99.84375 174.839844 105.964844 194.648438 109.945312 214.769531 L 919.234375 214.769531 C 898.804688 178.324219 860.246094 155.726562 818.378906 155.726562 Z M 91.554688 155.726562 "/>
<path style=" stroke:none;fill-rule:nonzero;fill:rgb(87.843137%,60.784314%,17.647059%);fill-opacity:1;" d="M 199.800781 665.960938 L 199.800781 747.601562 C 180.6875 746.644531 162.402344 740.988281 146.441406 731.460938 C 128.824219 721 114 705.863281 103.902344 687.191406 C 100.183594 680.371094 97.238281 673.242188 95.019531 665.960938 Z M 199.800781 665.960938 "/>
<path style=" stroke:none;fill-rule:nonzero;fill:rgb(100%,100%,100%);fill-opacity:1;" d="M 314.734375 850.414062 C 304.039062 850.414062 295.367188 841.738281 295.367188 831.042969 L 295.367188 781.96875 C 295.367188 771.273438 304.039062 762.601562 314.734375 762.601562 C 325.433594 762.601562 334.105469 771.273438 334.105469 781.96875 L 334.105469 831.042969 C 334.109375 841.742188 325.433594 850.414062 314.734375 850.414062 Z M 314.734375 850.414062 "/>
<path style=" stroke:none;fill-rule:nonzero;fill:rgb(100%,100%,100%);fill-opacity:1;" d="M 334.109375 725.765625 C 334.109375 736.464844 325.4375 745.136719 314.738281 745.136719 C 304.042969 745.136719 295.371094 736.464844 295.371094 725.765625 C 295.371094 715.066406 304.042969 706.394531 314.738281 706.394531 C 325.4375 706.394531 334.109375 715.066406 334.109375 725.765625 Z M 334.109375 725.765625 "/>
<path style=" stroke:none;fill-rule:nonzero;fill:rgb(20%,20%,20%);fill-opacity:1;" d="M 945.539062 535.6875 L 972.34375 535.6875 C 1000.824219 535.6875 1024 512.515625 1024 484.03125 C 1024 470.273438 1018.636719 457.308594 1008.84375 447.46875 C 999.066406 437.734375 986.101562 432.375 972.34375 432.375 L 942.351562 432.375 C 991.816406 396 1024 337.425781 1024 271.453125 C 1024 161.355469 934.429688 71.785156 824.332031 71.785156 L 51.664062 71.785156 C 23.179688 71.785156 0.0078125 94.957031 0.0078125 123.441406 C 0.0078125 151.925781 23.179688 175.097656 51.664062 175.097656 L 78.480469 175.097656 C 101.910156 236.980469 101.910156 305.921875 78.480469 367.804688 L 51.664062 367.804688 C 23.179688 367.804688 0.0078125 390.976562 0.0078125 419.460938 C 0.0078125 447.945312 23.179688 471.117188 51.664062 471.117188 L 81.65625 471.117188 C 32.183594 507.5 0 566.078125 0 632.050781 C 0 685.347656 20.769531 735.484375 58.488281 773.234375 C 91.621094 806.367188 134.355469 826.402344 180.421875 830.777344 L 180.421875 932.84375 C 180.421875 939.660156 184.007812 945.976562 189.855469 949.472656 C 195.710938 952.96875 202.96875 953.132812 208.972656 949.898438 L 286.164062 908.355469 L 363.355469 949.898438 C 366.226562 951.445312 369.382812 952.214844 372.539062 952.214844 C 375.980469 952.214844 379.417969 951.296875 382.472656 949.472656 C 388.324219 945.972656 391.90625 939.660156 391.90625 932.84375 L 391.90625 831.703125 L 972.339844 831.703125 C 1000.820312 831.703125 1023.996094 808.53125 1023.996094 780.046875 C 1023.996094 766.242188 1018.625 753.269531 1008.839844 743.484375 C 999.0625 733.753906 986.097656 728.390625 972.339844 728.390625 L 945.535156 728.390625 C 937.632812 707.550781 932.300781 685.855469 929.714844 663.671875 C 928.46875 653.21875 927.835938 642.578125 927.835938 632.050781 C 927.835938 621.527344 928.46875 610.886719 929.722656 600.378906 C 932.308594 578.222656 937.640625 556.519531 945.539062 535.6875 Z M 130.167969 324.742188 L 328.921875 324.742188 C 339.617188 324.742188 348.289062 316.066406 348.289062 305.371094 C 348.289062 294.675781 339.617188 286 328.917969 286 L 134.421875 286 C 134.875 276.308594 134.875 266.605469 134.421875 256.917969 L 230.332031 256.917969 C 241.03125 256.917969 249.703125 248.242188 249.703125 237.546875 C 249.703125 226.851562 241.027344 218.179688 230.332031 218.179688 L 130.167969 218.179688 C 127.648438 203.632812 124.148438 189.226562 119.550781 175.101562 L 818.367188 175.101562 C 853.753906 175.101562 886.214844 194.429688 903.078125 225.539062 C 918.664062 254.289062 918.664062 288.621094 903.078125 317.375 C 886.214844 348.484375 853.753906 367.808594 818.367188 367.808594 L 119.550781 367.808594 C 124.148438 353.6875 127.648438 339.285156 130.167969 324.742188 Z M 51.664062 432.378906 C 44.542969 432.378906 38.75 426.585938 38.75 419.464844 C 38.75 412.34375 44.542969 406.550781 51.664062 406.550781 L 818.367188 406.550781 C 867.984375 406.550781 913.492188 379.453125 937.136719 335.835938 C 958.992188 295.523438 958.992188 247.386719 937.136719 207.074219 C 913.492188 163.453125 867.984375 136.359375 818.367188 136.359375 L 51.664062 136.359375 C 44.542969 136.359375 38.75 130.5625 38.75 123.445312 C 38.75 116.324219 44.542969 110.53125 51.664062 110.53125 L 824.335938 110.53125 C 913.066406 110.53125 985.261719 182.722656 985.261719 271.457031 C 985.261719 360.15625 913.121094 432.324219 824.433594 432.378906 Z M 85.890625 745.847656 C 55.484375 715.421875 38.742188 675.003906 38.742188 632.050781 C 38.742188 543.347656 110.882812 471.175781 199.578125 471.121094 L 824.335938 471.121094 C 824.367188 471.121094 824.402344 471.117188 824.433594 471.117188 L 972.347656 471.117188 C 975.789062 471.117188 979.046875 472.472656 981.449219 474.867188 C 983.90625 477.332031 985.261719 480.589844 985.261719 484.03125 C 985.261719 491.152344 979.464844 496.945312 972.347656 496.945312 L 205.640625 496.945312 C 156.011719 496.945312 110.5 524.050781 86.882812 567.664062 C 76.203125 587.332031 70.5625 609.597656 70.5625 632.050781 C 70.5625 654.476562 76.203125 676.734375 86.867188 696.40625 C 98.4375 717.804688 115.621094 735.6875 136.515625 748.09375 C 150.03125 756.160156 164.957031 761.753906 180.425781 764.699219 L 180.425781 791.777344 C 144.722656 787.550781 111.6875 771.640625 85.890625 745.847656 Z M 353.171875 900.421875 L 295.351562 869.296875 C 292.484375 867.757812 289.324219 866.984375 286.167969 866.984375 C 283.011719 866.984375 279.855469 867.757812 276.984375 869.296875 L 219.164062 900.421875 L 219.164062 685.332031 L 353.171875 685.332031 Z M 981.480469 770.910156 C 983.914062 773.347656 985.257812 776.59375 985.257812 780.046875 C 985.257812 787.164062 979.464844 792.960938 972.34375 792.960938 L 391.914062 792.960938 L 391.914062 767.132812 L 972.347656 767.132812 C 975.789062 767.132812 979.042969 768.484375 981.480469 770.910156 Z M 391.914062 728.390625 L 391.914062 685.332031 L 455.191406 685.332031 C 465.890625 685.332031 474.5625 676.660156 474.5625 665.960938 C 474.5625 655.265625 465.886719 646.59375 455.191406 646.59375 L 199.792969 646.59375 C 189.097656 646.59375 180.425781 655.265625 180.425781 665.960938 L 180.425781 724.976562 C 171.988281 722.691406 163.859375 719.300781 156.335938 714.804688 C 141.421875 705.953125 129.183594 693.214844 120.933594 677.960938 C 113.324219 663.921875 109.304688 648.046875 109.304688 632.050781 C 109.304688 616.03125 113.324219 600.15625 120.941406 586.128906 C 137.789062 555.015625 170.246094 535.6875 205.640625 535.6875 L 904.433594 535.6875 C 899.835938 549.773438 896.273438 564.171875 893.742188 578.765625 L 793.675781 578.765625 C 782.976562 578.765625 774.304688 587.4375 774.304688 598.132812 C 774.304688 608.832031 782.976562 617.503906 793.675781 617.503906 L 889.476562 617.503906 C 889.246094 622.359375 889.097656 627.210938 889.097656 632.046875 C 889.097656 636.882812 889.246094 641.734375 889.476562 646.585938 L 695.089844 646.585938 C 684.390625 646.585938 675.71875 655.261719 675.71875 665.957031 C 675.71875 676.652344 684.394531 685.324219 695.089844 685.324219 L 893.742188 685.324219 C 896.277344 699.917969 899.835938 714.304688 904.429688 728.382812 Z M 391.914062 728.390625 "/>
<path style=" stroke:none;fill-rule:nonzero;fill:rgb(20%,20%,20%);fill-opacity:1;" d="M 415.339844 305.363281 C 415.339844 316.0625 406.664062 324.734375 395.96875 324.734375 C 385.269531 324.734375 376.597656 316.0625 376.597656 305.363281 C 376.597656 294.667969 385.269531 285.992188 395.96875 285.992188 C 406.664062 285.992188 415.339844 294.667969 415.339844 305.363281 Z M 415.339844 305.363281 "/>
</g>
</svg>
