<?xml version="1.0" encoding="UTF-8"?>
<svg xmlns="http://www.w3.org/2000/svg" xmlns:xlink="http://www.w3.org/1999/xlink" width="144px" height="144px" viewBox="0 0 144 144" version="1.1">
<g id="surface1">
<path style=" stroke:none;fill-rule:nonzero;fill:rgb(97.647059%,32.941176%,15.686275%);fill-opacity:1;" d="M 52.386719 114.234375 L 52.386719 131.179688 L 40.242188 124.644531 L 28.097656 131.179688 L 28.097656 93.652344 L 52.386719 93.652344 Z M 52.386719 114.234375 "/>
<path style=" stroke:none;fill-rule:nonzero;fill:rgb(96.862745%,69.803922%,22.352941%);fill-opacity:1;" d="M 128.035156 93.652344 C 128.492188 97.582031 129.527344 101.457031 131.128906 105.152344 L 52.386719 105.152344 L 52.386719 93.652344 L 28.097656 93.652344 L 28.097656 105.132812 C 25.410156 104.996094 22.835938 104.203125 20.59375 102.863281 C 18.117188 101.390625 16.03125 99.261719 14.609375 96.636719 C 13.300781 94.21875 12.644531 91.546875 12.644531 88.882812 C 12.644531 86.210938 13.300781 83.542969 14.609375 81.128906 C 14.652344 81.054688 14.691406 80.980469 14.734375 80.910156 C 17.609375 75.785156 23.03125 72.605469 28.917969 72.605469 L 131.128906 72.605469 C 129.960938 75.292969 129.101562 78.078125 128.542969 80.910156 C 128.332031 81.96875 128.160156 83.042969 128.035156 84.113281 C 127.847656 85.695312 127.753906 87.289062 127.753906 88.882812 C 127.753906 90.476562 127.847656 92.066406 128.035156 93.652344 Z M 128.035156 93.652344 "/>
<path style=" stroke:none;fill-rule:nonzero;fill:rgb(96.862745%,69.803922%,22.352941%);fill-opacity:1;" d="M 15.960938 42.945312 C 16.152344 41.359375 16.246094 39.769531 16.246094 38.175781 C 16.246094 36.582031 16.152344 34.988281 15.960938 33.40625 C 15.507812 29.476562 14.476562 25.597656 12.871094 21.898438 L 115.085938 21.898438 C 121.050781 21.898438 126.542969 25.167969 129.390625 30.417969 C 130.703125 32.835938 131.355469 35.503906 131.355469 38.175781 C 131.355469 40.839844 130.703125 43.511719 129.390625 45.929688 C 127.96875 48.554688 125.882812 50.683594 123.410156 52.15625 C 120.933594 53.628906 118.070312 54.445312 115.085938 54.445312 L 12.871094 54.445312 C 14.476562 50.75 15.507812 46.875 15.960938 42.945312 Z M 15.960938 42.945312 "/>
<path style=" stroke:none;fill-rule:nonzero;fill:rgb(87.843137%,60.784314%,17.647059%);fill-opacity:1;" d="M 129.390625 30.417969 C 126.542969 25.167969 121.050781 21.898438 115.085938 21.898438 L 101.464844 21.898438 C 107.433594 21.898438 112.925781 25.167969 115.773438 30.417969 C 117.082031 32.835938 117.734375 35.503906 117.734375 38.175781 C 117.734375 40.839844 117.082031 43.511719 115.773438 45.929688 C 114.347656 48.554688 112.261719 50.683594 109.789062 52.152344 C 107.3125 53.628906 104.449219 54.445312 101.464844 54.445312 L 115.085938 54.445312 C 118.070312 54.445312 120.933594 53.628906 123.410156 52.152344 C 125.882812 50.683594 127.96875 48.554688 129.390625 45.929688 C 130.703125 43.507812 131.355469 40.839844 131.355469 38.175781 C 131.355469 35.503906 130.703125 32.835938 129.390625 30.417969 Z M 129.390625 30.417969 "/>
<path style=" stroke:none;fill-rule:nonzero;fill:rgb(16.862745%,64.705882%,96.862745%);fill-opacity:1;" d="M 139.945312 106.484375 C 140.765625 107.304688 141.273438 108.441406 141.273438 109.695312 C 141.273438 112.203125 139.242188 114.234375 136.734375 114.234375 L 52.386719 114.234375 L 52.386719 105.152344 L 136.734375 105.152344 C 137.988281 105.152344 139.121094 105.660156 139.945312 106.484375 Z M 139.945312 106.484375 "/>
<path style=" stroke:none;fill-rule:nonzero;fill:rgb(16.862745%,64.705882%,96.862745%);fill-opacity:1;" d="M 139.945312 64.855469 C 140.765625 65.679688 141.273438 66.8125 141.273438 68.066406 C 141.273438 70.574219 139.242188 72.605469 136.734375 72.605469 L 28.917969 72.605469 C 22.945312 72.605469 17.453125 75.875 14.609375 81.128906 C 13.300781 83.542969 12.644531 86.210938 12.644531 88.882812 C 12.644531 91.546875 13.300781 94.21875 14.609375 96.636719 C 16.03125 99.261719 18.117188 101.390625 20.59375 102.859375 C 22.835938 104.203125 25.410156 104.996094 28.097656 105.132812 L 28.097656 114.234375 L 28.078125 114.234375 C 21.078125 114.234375 14.738281 111.394531 10.152344 106.808594 C 5.5625 102.21875 2.722656 95.882812 2.722656 88.882812 C 2.722656 74.875 14.078125 63.527344 28.078125 63.527344 L 136.734375 63.527344 C 137.988281 63.527344 139.121094 64.035156 139.945312 64.855469 Z M 139.945312 64.855469 "/>
<path style=" stroke:none;fill-rule:nonzero;fill:rgb(97.647059%,32.941176%,15.686275%);fill-opacity:1;" d="M 115.921875 12.820312 C 129.925781 12.820312 141.273438 24.167969 141.273438 38.175781 C 141.273438 45.175781 138.4375 51.511719 133.851562 56.101562 C 129.265625 60.6875 122.921875 63.527344 115.921875 63.527344 L 7.261719 63.527344 C 4.757812 63.527344 2.722656 61.496094 2.722656 58.984375 C 2.722656 57.734375 3.230469 56.597656 4.054688 55.773438 C 4.875 54.953125 6.011719 54.445312 7.261719 54.445312 L 115.085938 54.445312 C 118.070312 54.445312 120.933594 53.628906 123.410156 52.152344 C 125.882812 50.683594 127.96875 48.554688 129.390625 45.929688 C 130.703125 43.507812 131.355469 40.839844 131.355469 38.175781 C 131.355469 35.503906 130.703125 32.835938 129.390625 30.417969 C 126.542969 25.167969 121.050781 21.898438 115.085938 21.898438 L 7.261719 21.898438 C 4.757812 21.898438 2.722656 19.863281 2.722656 17.359375 C 2.722656 16.105469 3.230469 14.972656 4.054688 14.148438 C 4.875 13.328125 6.011719 12.820312 7.261719 12.820312 C 7.261719 12.820312 115.921875 12.820312 115.921875 12.820312 Z M 115.921875 12.820312 "/>
<path style=" stroke:none;fill-rule:nonzero;fill:rgb(87.843137%,60.784314%,17.647059%);fill-opacity:1;" d="M 131.128906 72.605469 C 129.960938 75.292969 129.101562 78.078125 128.542969 80.910156 L 14.734375 80.910156 C 17.605469 75.785156 23.03125 72.605469 28.917969 72.605469 Z M 131.128906 72.605469 "/>
<path style=" stroke:none;fill-rule:nonzero;fill:rgb(87.843137%,60.784314%,17.647059%);fill-opacity:1;" d="M 12.875 21.898438 C 14.039062 24.585938 14.902344 27.371094 15.460938 30.203125 L 129.265625 30.203125 C 126.394531 25.078125 120.972656 21.898438 115.085938 21.898438 Z M 12.875 21.898438 "/>
<path style=" stroke:none;fill-rule:nonzero;fill:rgb(87.843137%,60.784314%,17.647059%);fill-opacity:1;" d="M 28.097656 93.652344 L 28.097656 105.132812 C 25.410156 104.996094 22.835938 104.203125 20.59375 102.863281 C 18.117188 101.390625 16.03125 99.261719 14.609375 96.636719 C 14.089844 95.675781 13.675781 94.675781 13.363281 93.652344 Z M 28.097656 93.652344 "/>
<path style=" stroke:none;fill-rule:nonzero;fill:rgb(100%,100%,100%);fill-opacity:1;" d="M 44.257812 119.589844 C 42.753906 119.589844 41.535156 118.371094 41.535156 116.867188 L 41.535156 109.964844 C 41.535156 108.460938 42.753906 107.242188 44.257812 107.242188 C 45.765625 107.242188 46.984375 108.460938 46.984375 109.964844 L 46.984375 116.867188 C 46.984375 118.371094 45.765625 119.589844 44.257812 119.589844 Z M 44.257812 119.589844 "/>
<path style=" stroke:none;fill-rule:nonzero;fill:rgb(100%,100%,100%);fill-opacity:1;" d="M 46.984375 102.0625 C 46.984375 103.566406 45.765625 104.785156 44.261719 104.785156 C 42.757812 104.785156 41.535156 103.566406 41.535156 102.0625 C 41.535156 100.554688 42.757812 99.335938 44.261719 99.335938 C 45.765625 99.335938 46.984375 100.554688 46.984375 102.0625 Z M 46.984375 102.0625 "/>
<path style=" stroke:none;fill-rule:nonzero;fill:rgb(20%,20%,20%);fill-opacity:1;" d="M 132.964844 75.332031 L 136.734375 75.332031 C 140.742188 75.332031 144 72.074219 144 68.066406 C 144 66.132812 143.246094 64.308594 141.867188 62.925781 C 140.492188 61.554688 138.671875 60.804688 136.734375 60.804688 L 132.519531 60.804688 C 139.472656 55.6875 144 47.449219 144 38.171875 C 144 22.691406 131.402344 10.09375 115.921875 10.09375 L 7.265625 10.09375 C 3.257812 10.09375 0 13.351562 0 17.359375 C 0 21.363281 3.257812 24.621094 7.265625 24.621094 L 11.035156 24.621094 C 14.332031 33.324219 14.332031 43.019531 11.035156 51.722656 L 7.265625 51.722656 C 3.257812 51.722656 0 54.980469 0 58.988281 C 0 62.992188 3.257812 66.25 7.265625 66.25 L 11.484375 66.25 C 4.527344 71.367188 0 79.605469 0 88.882812 C 0 96.375 2.921875 103.425781 8.226562 108.734375 C 12.882812 113.394531 18.894531 116.210938 25.371094 116.828125 L 25.371094 131.179688 C 25.371094 132.140625 25.875 133.027344 26.699219 133.519531 C 27.523438 134.011719 28.542969 134.035156 29.386719 133.578125 L 40.242188 127.738281 L 51.097656 133.578125 C 51.5 133.796875 51.945312 133.90625 52.386719 133.90625 C 52.871094 133.90625 53.355469 133.777344 53.785156 133.519531 C 54.609375 133.027344 55.113281 132.140625 55.113281 131.179688 L 55.113281 116.957031 L 136.734375 116.957031 C 140.742188 116.957031 144 113.699219 144 109.695312 C 144 107.753906 143.242188 105.929688 141.867188 104.550781 C 140.492188 103.183594 138.671875 102.429688 136.734375 102.429688 L 132.964844 102.429688 C 131.855469 99.5 131.105469 96.449219 130.742188 93.328125 C 130.566406 91.859375 130.476562 90.363281 130.476562 88.882812 C 130.476562 87.402344 130.566406 85.90625 130.742188 84.429688 C 131.105469 81.3125 131.855469 78.261719 132.964844 75.332031 Z M 18.304688 45.667969 L 46.253906 45.667969 C 47.757812 45.667969 48.976562 44.445312 48.976562 42.941406 C 48.976562 41.4375 47.757812 40.21875 46.253906 40.21875 L 18.902344 40.21875 C 18.964844 38.855469 18.964844 37.492188 18.902344 36.128906 L 32.390625 36.128906 C 33.894531 36.128906 35.113281 34.910156 35.113281 33.40625 C 35.113281 31.902344 33.894531 30.679688 32.390625 30.679688 L 18.304688 30.679688 C 17.949219 28.636719 17.457031 26.609375 16.8125 24.625 L 115.082031 24.625 C 120.058594 24.625 124.625 27.339844 126.996094 31.714844 C 129.1875 35.757812 129.1875 40.585938 126.996094 44.628906 C 124.625 49.003906 120.058594 51.722656 115.082031 51.722656 L 16.8125 51.722656 C 17.457031 49.738281 17.949219 47.710938 18.304688 45.667969 Z M 7.265625 60.804688 C 6.265625 60.804688 5.449219 59.988281 5.449219 58.988281 C 5.449219 57.984375 6.265625 57.171875 7.265625 57.171875 L 115.082031 57.171875 C 122.058594 57.171875 128.460938 53.359375 131.785156 47.226562 C 134.859375 41.558594 134.859375 34.789062 131.785156 29.121094 C 128.460938 22.984375 122.058594 19.175781 115.082031 19.175781 L 7.265625 19.175781 C 6.265625 19.175781 5.449219 18.359375 5.449219 17.359375 C 5.449219 16.359375 6.265625 15.542969 7.265625 15.542969 L 115.921875 15.542969 C 128.398438 15.542969 138.550781 25.695312 138.550781 38.171875 C 138.550781 50.648438 128.40625 60.796875 115.9375 60.804688 Z M 12.078125 104.886719 C 7.800781 100.605469 5.449219 94.921875 5.449219 88.882812 C 5.449219 76.40625 15.59375 66.257812 28.066406 66.25 L 115.921875 66.25 C 115.925781 66.25 115.929688 66.25 115.9375 66.25 L 136.734375 66.25 C 137.21875 66.25 137.679688 66.441406 138.015625 66.777344 C 138.363281 67.125 138.550781 67.582031 138.550781 68.066406 C 138.550781 69.066406 137.738281 69.882812 136.734375 69.882812 L 28.917969 69.882812 C 21.9375 69.882812 15.539062 73.695312 12.21875 79.828125 C 10.714844 82.59375 9.921875 85.722656 9.921875 88.882812 C 9.921875 92.035156 10.714844 95.164062 12.214844 97.933594 C 13.84375 100.941406 16.257812 103.457031 19.199219 105.199219 C 21.097656 106.335938 23.195312 107.121094 25.371094 107.535156 L 25.371094 111.34375 C 20.351562 110.75 15.707031 108.511719 12.078125 104.886719 Z M 49.664062 126.621094 L 41.535156 122.246094 C 41.128906 122.027344 40.6875 121.917969 40.242188 121.917969 C 39.796875 121.917969 39.355469 122.027344 38.949219 122.246094 L 30.820312 126.621094 L 30.820312 96.375 L 49.664062 96.375 Z M 138.019531 108.410156 C 138.363281 108.75 138.550781 109.207031 138.550781 109.695312 C 138.550781 110.695312 137.738281 111.511719 136.734375 111.511719 L 55.113281 111.511719 L 55.113281 107.878906 L 136.734375 107.878906 C 137.21875 107.878906 137.679688 108.066406 138.019531 108.410156 Z M 55.113281 102.429688 L 55.113281 96.375 L 64.011719 96.375 C 65.515625 96.375 66.734375 95.15625 66.734375 93.652344 C 66.734375 92.148438 65.515625 90.925781 64.011719 90.925781 L 28.097656 90.925781 C 26.589844 90.925781 25.371094 92.148438 25.371094 93.652344 L 25.371094 101.949219 C 24.1875 101.628906 23.042969 101.152344 21.984375 100.519531 C 19.886719 99.273438 18.167969 97.484375 17.007812 95.339844 C 15.9375 93.363281 15.371094 91.132812 15.371094 88.882812 C 15.371094 86.628906 15.9375 84.398438 17.007812 82.425781 C 19.375 78.050781 23.941406 75.332031 28.917969 75.332031 L 127.1875 75.332031 C 126.539062 77.3125 126.039062 79.335938 125.683594 81.390625 L 111.609375 81.390625 C 110.105469 81.390625 108.886719 82.609375 108.886719 84.113281 C 108.886719 85.617188 110.105469 86.835938 111.609375 86.835938 L 125.082031 86.835938 C 125.050781 87.519531 125.03125 88.203125 125.03125 88.882812 C 125.03125 89.5625 125.050781 90.242188 125.082031 90.925781 L 97.746094 90.925781 C 96.242188 90.925781 95.023438 92.144531 95.023438 93.648438 C 95.023438 95.152344 96.242188 96.375 97.746094 96.375 L 125.683594 96.375 C 126.039062 98.425781 126.539062 100.449219 127.183594 102.429688 Z M 55.113281 102.429688 "/>
<path style=" stroke:none;fill-rule:nonzero;fill:rgb(20%,20%,20%);fill-opacity:1;" d="M 58.40625 42.941406 C 58.40625 44.445312 57.1875 45.664062 55.683594 45.664062 C 54.179688 45.664062 52.960938 44.445312 52.960938 42.941406 C 52.960938 41.4375 54.179688 40.21875 55.683594 40.21875 C 57.1875 40.21875 58.40625 41.4375 58.40625 42.941406 Z M 58.40625 42.941406 "/>
</g>
</svg>
