<?xml version="1.0" encoding="UTF-8"?>
<svg xmlns="http://www.w3.org/2000/svg" xmlns:xlink="http://www.w3.org/1999/xlink" width="192px" height="192px" viewBox="0 0 192 192" version="1.1">
<g id="surface1">
<path style=" stroke:none;fill-rule:nonzero;fill:rgb(97.647059%,32.941176%,15.686275%);fill-opacity:1;" d="M 69.851562 152.3125 L 69.851562 174.90625 L 53.65625 166.191406 L 37.460938 174.90625 L 37.460938 124.867188 L 69.851562 124.867188 Z M 69.851562 152.3125 "/>
<path style=" stroke:none;fill-rule:nonzero;fill:rgb(96.862745%,69.803922%,22.352941%);fill-opacity:1;" d="M 170.714844 124.867188 C 171.324219 130.105469 172.699219 135.273438 174.835938 140.203125 L 69.851562 140.203125 L 69.851562 124.867188 L 37.460938 124.867188 L 37.460938 140.175781 C 33.878906 139.996094 30.449219 138.9375 27.457031 137.148438 C 24.15625 135.1875 21.375 132.347656 19.480469 128.847656 C 17.734375 125.621094 16.863281 122.0625 16.863281 118.507812 C 16.863281 114.949219 17.734375 111.390625 19.480469 108.167969 C 19.535156 108.074219 19.589844 107.976562 19.644531 107.878906 C 23.476562 101.046875 30.707031 96.808594 38.558594 96.808594 L 174.835938 96.808594 C 173.28125 100.390625 172.132812 104.105469 171.386719 107.878906 C 171.105469 109.292969 170.878906 110.722656 170.714844 112.152344 C 170.464844 114.261719 170.335938 116.386719 170.335938 118.507812 C 170.335938 120.636719 170.464844 122.757812 170.714844 124.867188 Z M 170.714844 124.867188 "/>
<path style=" stroke:none;fill-rule:nonzero;fill:rgb(96.862745%,69.803922%,22.352941%);fill-opacity:1;" d="M 21.28125 57.257812 C 21.535156 55.148438 21.660156 53.023438 21.660156 50.898438 C 21.660156 48.777344 21.535156 46.652344 21.28125 44.539062 C 20.675781 39.300781 19.300781 34.128906 17.160156 29.199219 L 153.445312 29.199219 C 161.402344 29.199219 168.726562 33.558594 172.519531 40.554688 C 174.269531 43.78125 175.140625 47.339844 175.140625 50.898438 C 175.140625 54.453125 174.269531 58.011719 172.519531 61.238281 C 170.625 64.738281 167.84375 67.578125 164.546875 69.539062 C 161.242188 71.503906 157.425781 72.59375 153.445312 72.59375 L 17.160156 72.59375 C 19.300781 67.664062 20.675781 62.496094 21.28125 57.257812 Z M 21.28125 57.257812 "/>
<path style=" stroke:none;fill-rule:nonzero;fill:rgb(87.843137%,60.784314%,17.647059%);fill-opacity:1;" d="M 172.519531 40.554688 C 168.722656 33.558594 161.402344 29.199219 153.445312 29.199219 L 135.285156 29.199219 C 143.242188 29.199219 150.566406 33.558594 154.363281 40.554688 C 156.109375 43.78125 156.980469 47.339844 156.980469 50.898438 C 156.980469 54.453125 156.109375 58.011719 154.363281 61.238281 C 152.464844 64.738281 149.683594 67.578125 146.386719 69.539062 C 143.082031 71.503906 139.265625 72.59375 135.285156 72.59375 L 153.445312 72.59375 C 157.425781 72.59375 161.242188 71.503906 164.546875 69.539062 C 167.84375 67.578125 170.625 64.738281 172.519531 61.238281 C 174.269531 58.011719 175.140625 54.453125 175.140625 50.898438 C 175.140625 47.339844 174.269531 43.78125 172.519531 40.554688 Z M 172.519531 40.554688 "/>
<path style=" stroke:none;fill-rule:nonzero;fill:rgb(16.862745%,64.705882%,96.862745%);fill-opacity:1;" d="M 186.59375 141.976562 C 187.6875 143.070312 188.367188 144.585938 188.367188 146.257812 C 188.367188 149.605469 185.65625 152.3125 182.3125 152.3125 L 69.851562 152.3125 L 69.851562 140.203125 L 182.3125 140.203125 C 183.984375 140.203125 185.496094 140.882812 186.59375 141.976562 Z M 186.59375 141.976562 "/>
<path style=" stroke:none;fill-rule:nonzero;fill:rgb(16.862745%,64.705882%,96.862745%);fill-opacity:1;" d="M 186.59375 86.472656 C 187.6875 87.574219 188.367188 89.085938 188.367188 90.753906 C 188.367188 94.097656 185.65625 96.808594 182.3125 96.808594 L 38.558594 96.808594 C 30.59375 96.808594 23.273438 101.167969 19.480469 108.167969 C 17.734375 111.390625 16.863281 114.949219 16.863281 118.507812 C 16.863281 122.0625 17.734375 125.621094 19.480469 128.847656 C 21.375 132.347656 24.15625 135.1875 27.457031 137.148438 C 30.449219 138.933594 33.878906 139.996094 37.460938 140.175781 L 37.460938 152.3125 L 37.4375 152.3125 C 28.105469 152.3125 19.648438 148.527344 13.535156 142.414062 C 7.417969 136.292969 3.628906 127.84375 3.628906 118.507812 C 3.628906 99.835938 18.769531 84.703125 37.4375 84.703125 L 182.3125 84.703125 C 183.984375 84.703125 185.496094 85.378906 186.59375 86.472656 Z M 186.59375 86.472656 "/>
<path style=" stroke:none;fill-rule:nonzero;fill:rgb(97.647059%,32.941176%,15.686275%);fill-opacity:1;" d="M 154.566406 17.09375 C 173.234375 17.09375 188.367188 32.226562 188.367188 50.898438 C 188.367188 60.234375 184.585938 68.679688 178.46875 74.804688 C 172.351562 80.917969 163.894531 84.703125 154.566406 84.703125 L 9.683594 84.703125 C 6.34375 84.703125 3.632812 81.992188 3.632812 78.648438 C 3.632812 76.976562 4.308594 75.460938 5.402344 74.367188 C 6.5 73.273438 8.015625 72.59375 9.683594 72.59375 L 153.445312 72.59375 C 157.425781 72.59375 161.242188 71.503906 164.546875 69.539062 C 167.84375 67.578125 170.625 64.738281 172.523438 61.238281 C 174.269531 58.011719 175.140625 54.453125 175.140625 50.898438 C 175.140625 47.339844 174.269531 43.78125 172.523438 40.554688 C 168.726562 33.558594 161.402344 29.199219 153.445312 29.199219 L 9.683594 29.199219 C 6.34375 29.199219 3.632812 26.488281 3.632812 23.144531 C 3.632812 21.476562 4.308594 19.964844 5.402344 18.863281 C 6.5 17.769531 8.015625 17.089844 9.683594 17.089844 C 9.683594 17.09375 154.566406 17.09375 154.566406 17.09375 Z M 154.566406 17.09375 "/>
<path style=" stroke:none;fill-rule:nonzero;fill:rgb(87.843137%,60.784314%,17.647059%);fill-opacity:1;" d="M 174.835938 96.808594 C 173.28125 100.390625 172.132812 104.105469 171.386719 107.878906 L 19.644531 107.878906 C 23.476562 101.046875 30.707031 96.808594 38.558594 96.808594 Z M 174.835938 96.808594 "/>
<path style=" stroke:none;fill-rule:nonzero;fill:rgb(87.843137%,60.784314%,17.647059%);fill-opacity:1;" d="M 17.167969 29.199219 C 18.722656 32.78125 19.867188 36.496094 20.613281 40.269531 L 172.355469 40.269531 C 168.527344 33.4375 161.296875 29.199219 153.445312 29.199219 Z M 17.167969 29.199219 "/>
<path style=" stroke:none;fill-rule:nonzero;fill:rgb(87.843137%,60.784314%,17.647059%);fill-opacity:1;" d="M 37.460938 124.867188 L 37.460938 140.175781 C 33.878906 139.996094 30.449219 138.9375 27.457031 137.148438 C 24.15625 135.1875 21.375 132.347656 19.480469 128.847656 C 18.785156 127.570312 18.230469 126.234375 17.816406 124.867188 Z M 37.460938 124.867188 "/>
<path style=" stroke:none;fill-rule:nonzero;fill:rgb(100%,100%,100%);fill-opacity:1;" d="M 59.011719 159.453125 C 57.007812 159.453125 55.382812 157.828125 55.382812 155.820312 L 55.382812 146.621094 C 55.382812 144.613281 57.007812 142.988281 59.011719 142.988281 C 61.019531 142.988281 62.644531 144.613281 62.644531 146.621094 L 62.644531 155.820312 C 62.644531 157.828125 61.019531 159.453125 59.011719 159.453125 Z M 59.011719 159.453125 "/>
<path style=" stroke:none;fill-rule:nonzero;fill:rgb(100%,100%,100%);fill-opacity:1;" d="M 62.644531 136.082031 C 62.644531 138.085938 61.019531 139.714844 59.015625 139.714844 C 57.007812 139.714844 55.382812 138.085938 55.382812 136.082031 C 55.382812 134.074219 57.007812 132.449219 59.015625 132.449219 C 61.019531 132.449219 62.644531 134.074219 62.644531 136.082031 Z M 62.644531 136.082031 "/>
<path style=" stroke:none;fill-rule:nonzero;fill:rgb(20%,20%,20%);fill-opacity:1;" d="M 177.289062 100.441406 L 182.316406 100.441406 C 187.65625 100.441406 192 96.097656 192 90.757812 C 192 88.175781 190.996094 85.746094 189.160156 83.902344 C 187.324219 82.074219 184.894531 81.070312 182.316406 81.070312 L 176.691406 81.070312 C 185.964844 74.25 192 63.265625 192 50.898438 C 192 30.253906 175.207031 13.460938 154.5625 13.460938 L 9.6875 13.460938 C 4.347656 13.460938 0 17.804688 0 23.144531 C 0 28.484375 4.347656 32.832031 9.6875 32.832031 L 14.714844 32.832031 C 19.109375 44.433594 19.109375 57.359375 14.714844 68.964844 L 9.6875 68.964844 C 4.347656 68.964844 0 73.308594 0 78.648438 C 0 83.988281 4.347656 88.335938 9.6875 88.335938 L 15.308594 88.335938 C 6.035156 95.15625 0 106.140625 0 118.507812 C 0 128.503906 3.894531 137.902344 10.96875 144.980469 C 17.179688 151.195312 25.191406 154.949219 33.828125 155.769531 L 33.828125 174.910156 C 33.828125 176.1875 34.5 177.371094 35.597656 178.027344 C 36.695312 178.683594 38.054688 178.710938 39.183594 178.105469 L 53.65625 170.316406 L 68.128906 178.105469 C 68.667969 178.394531 69.257812 178.539062 69.851562 178.539062 C 70.496094 178.539062 71.140625 178.367188 71.714844 178.027344 C 72.8125 177.371094 73.484375 176.1875 73.484375 174.910156 L 73.484375 155.945312 L 182.3125 155.945312 C 187.652344 155.945312 192 151.597656 192 146.257812 C 192 143.671875 190.992188 141.238281 189.15625 139.402344 C 187.324219 137.578125 184.894531 136.574219 182.3125 136.574219 L 177.289062 136.574219 C 175.804688 132.664062 174.804688 128.597656 174.320312 124.4375 C 174.085938 122.476562 173.96875 120.484375 173.96875 118.507812 C 173.96875 116.535156 174.085938 114.542969 174.324219 112.570312 C 174.808594 108.417969 175.808594 104.347656 177.289062 100.441406 Z M 24.40625 60.890625 L 61.671875 60.890625 C 63.679688 60.890625 65.304688 59.261719 65.304688 57.257812 C 65.304688 55.25 63.679688 53.625 61.671875 53.625 L 25.203125 53.625 C 25.289062 51.808594 25.289062 49.988281 25.203125 48.171875 L 43.1875 48.171875 C 45.191406 48.171875 46.820312 46.546875 46.820312 44.539062 C 46.820312 42.535156 45.191406 40.910156 43.1875 40.910156 L 24.40625 40.910156 C 23.933594 38.179688 23.277344 35.480469 22.414062 32.832031 L 153.445312 32.832031 C 160.078125 32.832031 166.164062 36.457031 169.328125 42.289062 C 172.25 47.679688 172.25 54.117188 169.328125 59.507812 C 166.164062 65.339844 160.078125 68.964844 153.445312 68.964844 L 22.414062 68.964844 C 23.277344 66.316406 23.933594 63.617188 24.40625 60.890625 Z M 9.6875 81.070312 C 8.351562 81.070312 7.265625 79.984375 7.265625 78.648438 C 7.265625 77.316406 8.351562 76.226562 9.6875 76.226562 L 153.445312 76.226562 C 162.746094 76.226562 171.28125 71.148438 175.714844 62.96875 C 179.8125 55.410156 179.8125 46.386719 175.714844 38.828125 C 171.28125 30.648438 162.746094 25.566406 153.445312 25.566406 L 9.6875 25.566406 C 8.351562 25.566406 7.265625 24.480469 7.265625 23.144531 C 7.265625 21.8125 8.351562 20.722656 9.6875 20.722656 L 154.5625 20.722656 C 171.199219 20.722656 184.734375 34.261719 184.734375 50.898438 C 184.734375 67.527344 171.210938 81.0625 154.582031 81.070312 Z M 16.105469 139.847656 C 10.402344 134.140625 7.265625 126.5625 7.265625 118.507812 C 7.265625 101.878906 20.789062 88.34375 37.421875 88.335938 L 154.5625 88.335938 C 154.570312 88.335938 154.574219 88.335938 154.582031 88.335938 L 182.316406 88.335938 C 182.960938 88.335938 183.570312 88.589844 184.023438 89.039062 C 184.480469 89.5 184.734375 90.109375 184.734375 90.757812 C 184.734375 92.089844 183.648438 93.175781 182.316406 93.175781 L 38.558594 93.175781 C 29.253906 93.175781 20.71875 98.257812 16.289062 106.4375 C 14.289062 110.125 13.230469 114.300781 13.230469 118.507812 C 13.230469 122.714844 14.289062 126.886719 16.289062 130.578125 C 18.457031 134.589844 21.679688 137.941406 25.597656 140.269531 C 28.128906 141.78125 30.929688 142.828125 33.828125 143.382812 L 33.828125 148.457031 C 27.136719 147.664062 20.941406 144.683594 16.105469 139.847656 Z M 66.21875 168.828125 L 55.378906 162.992188 C 54.839844 162.703125 54.25 162.558594 53.65625 162.558594 C 53.0625 162.558594 52.472656 162.703125 51.933594 162.992188 L 41.09375 168.828125 L 41.09375 128.5 L 66.21875 128.5 Z M 184.027344 144.546875 C 184.484375 145.003906 184.734375 145.609375 184.734375 146.257812 C 184.734375 147.59375 183.648438 148.679688 182.316406 148.679688 L 73.484375 148.679688 L 73.484375 143.835938 L 182.316406 143.835938 C 182.960938 143.835938 183.570312 144.089844 184.027344 144.546875 Z M 73.484375 136.574219 L 73.484375 128.5 L 85.347656 128.5 C 87.355469 128.5 88.980469 126.875 88.980469 124.867188 C 88.980469 122.863281 87.355469 121.234375 85.347656 121.234375 L 37.460938 121.234375 C 35.457031 121.234375 33.828125 122.863281 33.828125 124.867188 L 33.828125 135.933594 C 32.246094 135.503906 30.722656 134.867188 29.3125 134.027344 C 26.515625 132.367188 24.222656 129.976562 22.675781 127.117188 C 21.25 124.484375 20.496094 121.507812 20.496094 118.507812 C 20.496094 115.507812 21.25 112.53125 22.675781 109.898438 C 25.835938 104.066406 31.921875 100.441406 38.558594 100.441406 L 169.582031 100.441406 C 168.71875 103.082031 168.050781 105.78125 167.578125 108.519531 L 148.8125 108.519531 C 146.808594 108.519531 145.183594 110.144531 145.183594 112.148438 C 145.183594 114.15625 146.808594 115.78125 148.8125 115.78125 L 166.777344 115.78125 C 166.734375 116.691406 166.707031 117.601562 166.707031 118.507812 C 166.707031 119.414062 166.734375 120.324219 166.777344 121.234375 L 130.328125 121.234375 C 128.324219 121.234375 126.699219 122.859375 126.699219 124.867188 C 126.699219 126.871094 128.324219 128.5 130.328125 128.5 L 167.578125 128.5 C 168.050781 131.234375 168.71875 133.933594 169.582031 136.570312 Z M 73.484375 136.574219 "/>
<path style=" stroke:none;fill-rule:nonzero;fill:rgb(20%,20%,20%);fill-opacity:1;" d="M 77.875 57.253906 C 77.875 59.261719 76.25 60.886719 74.242188 60.886719 C 72.238281 60.886719 70.613281 59.261719 70.613281 57.253906 C 70.613281 55.25 72.238281 53.625 74.242188 53.625 C 76.25 53.625 77.875 55.25 77.875 57.253906 Z M 77.875 57.253906 "/>
</g>
</svg>
