<?xml version="1.0" encoding="UTF-8"?>
<svg xmlns="http://www.w3.org/2000/svg" xmlns:xlink="http://www.w3.org/1999/xlink" width="512px" height="512px" viewBox="0 0 512 512" version="1.1">
<g id="surface1">
<path style=" stroke:none;fill-rule:nonzero;fill:rgb(97.647059%,32.941176%,15.686275%);fill-opacity:1;" d="M 186.269531 406.164062 L 186.269531 466.421875 L 143.085938 443.175781 L 99.898438 466.421875 L 99.898438 332.980469 L 186.269531 332.980469 Z M 186.269531 406.164062 "/>
<path style=" stroke:none;fill-rule:nonzero;fill:rgb(96.862745%,69.803922%,22.352941%);fill-opacity:1;" d="M 455.242188 332.980469 C 456.867188 346.953125 460.535156 360.730469 466.230469 373.878906 L 186.269531 373.878906 L 186.269531 332.980469 L 99.898438 332.980469 L 99.898438 373.800781 C 90.34375 373.324219 81.199219 370.496094 73.21875 365.730469 C 64.414062 360.5 57 352.933594 51.949219 343.59375 C 47.289062 334.992188 44.964844 325.503906 44.964844 316.023438 C 44.964844 306.53125 47.289062 297.039062 51.949219 288.453125 C 52.09375 288.195312 52.234375 287.9375 52.390625 287.679688 C 62.605469 269.457031 81.886719 258.15625 102.820312 258.15625 L 466.230469 258.15625 C 462.085938 267.714844 459.023438 277.617188 457.035156 287.679688 C 456.285156 291.449219 455.679688 295.257812 455.238281 299.066406 C 454.566406 304.699219 454.234375 310.367188 454.234375 316.023438 C 454.234375 321.691406 454.570312 327.347656 455.242188 332.980469 Z M 455.242188 332.980469 "/>
<path style=" stroke:none;fill-rule:nonzero;fill:rgb(96.862745%,69.803922%,22.352941%);fill-opacity:1;" d="M 56.753906 152.6875 C 57.425781 147.058594 57.761719 141.402344 57.761719 135.730469 C 57.761719 130.074219 57.425781 124.40625 56.753906 118.777344 C 55.140625 104.804688 51.472656 91.011719 45.765625 77.863281 L 409.1875 77.863281 C 430.40625 77.863281 449.933594 89.488281 460.058594 108.148438 C 464.71875 116.75 467.042969 126.238281 467.042969 135.730469 C 467.042969 145.210938 464.71875 154.703125 460.058594 163.304688 C 454.996094 172.640625 447.582031 180.207031 438.789062 185.4375 C 429.980469 190.679688 419.804688 193.585938 409.1875 193.585938 L 45.765625 193.585938 C 51.472656 180.441406 55.140625 166.660156 56.753906 152.6875 Z M 56.753906 152.6875 "/>
<path style=" stroke:none;fill-rule:nonzero;fill:rgb(87.843137%,60.784314%,17.647059%);fill-opacity:1;" d="M 460.058594 108.148438 C 449.933594 89.484375 430.40625 77.863281 409.1875 77.863281 L 360.765625 77.863281 C 381.980469 77.863281 401.507812 89.488281 411.632812 108.148438 C 416.292969 116.746094 418.617188 126.238281 418.617188 135.730469 C 418.617188 145.210938 416.292969 154.703125 411.632812 163.300781 C 406.570312 172.640625 399.15625 180.207031 390.363281 185.4375 C 381.554688 190.679688 371.378906 193.585938 360.765625 193.585938 L 409.1875 193.585938 C 419.804688 193.585938 429.980469 190.679688 438.789062 185.4375 C 447.582031 180.207031 454.996094 172.640625 460.058594 163.300781 C 464.71875 154.699219 467.042969 145.210938 467.042969 135.730469 C 467.042969 126.238281 464.71875 116.746094 460.058594 108.148438 Z M 460.058594 108.148438 "/>
<path style=" stroke:none;fill-rule:nonzero;fill:rgb(16.862745%,64.705882%,96.862745%);fill-opacity:1;" d="M 497.585938 378.605469 C 500.503906 381.523438 502.3125 385.566406 502.3125 390.019531 C 502.3125 398.945312 495.078125 406.164062 486.171875 406.164062 L 186.269531 406.164062 L 186.269531 373.878906 L 486.167969 373.878906 C 490.625 373.878906 494.652344 375.6875 497.585938 378.605469 Z M 497.585938 378.605469 "/>
<path style=" stroke:none;fill-rule:nonzero;fill:rgb(16.862745%,64.705882%,96.862745%);fill-opacity:1;" d="M 497.585938 230.597656 C 500.503906 233.527344 502.3125 237.558594 502.3125 242.015625 C 502.3125 250.925781 495.078125 258.15625 486.171875 258.15625 L 102.816406 258.15625 C 81.585938 258.15625 62.0625 269.777344 51.949219 288.453125 C 47.289062 297.039062 44.964844 306.53125 44.964844 316.023438 C 44.964844 325.503906 47.289062 334.992188 51.949219 343.59375 C 57 352.929688 64.410156 360.496094 73.21875 365.730469 C 81.199219 370.492188 90.34375 373.320312 99.898438 373.800781 L 99.898438 406.160156 L 99.835938 406.160156 C 74.949219 406.160156 52.402344 396.074219 36.089844 379.765625 C 19.78125 363.441406 9.683594 340.921875 9.683594 316.023438 C 9.683594 266.226562 50.050781 225.871094 99.835938 225.871094 L 486.167969 225.871094 C 490.625 225.871094 494.652344 227.679688 497.585938 230.597656 Z M 497.585938 230.597656 "/>
<path style=" stroke:none;fill-rule:nonzero;fill:rgb(97.647059%,32.941176%,15.686275%);fill-opacity:1;" d="M 412.171875 45.578125 C 461.953125 45.578125 502.3125 85.933594 502.3125 135.730469 C 502.3125 160.628906 492.226562 183.152344 475.914062 199.472656 C 459.605469 215.785156 437.058594 225.871094 412.171875 225.871094 L 25.824219 225.871094 C 16.914062 225.871094 9.683594 218.652344 9.683594 209.726562 C 9.683594 205.273438 11.492188 201.230469 14.410156 198.3125 C 17.328125 195.394531 21.371094 193.585938 25.824219 193.585938 L 409.191406 193.585938 C 419.804688 193.585938 429.980469 190.679688 438.789062 185.4375 C 447.582031 180.207031 454.996094 172.636719 460.058594 163.300781 C 464.71875 154.699219 467.042969 145.210938 467.042969 135.730469 C 467.042969 126.238281 464.71875 116.746094 460.058594 108.144531 C 449.933594 89.484375 430.40625 77.863281 409.191406 77.863281 L 25.824219 77.863281 C 16.914062 77.863281 9.683594 70.632812 9.683594 61.722656 C 9.683594 57.265625 11.492188 53.238281 14.410156 50.304688 C 17.328125 47.386719 21.371094 45.578125 25.824219 45.578125 C 25.824219 45.578125 412.171875 45.578125 412.171875 45.578125 Z M 412.171875 45.578125 "/>
<path style=" stroke:none;fill-rule:nonzero;fill:rgb(87.843137%,60.784314%,17.647059%);fill-opacity:1;" d="M 466.230469 258.15625 C 462.085938 267.710938 459.023438 277.617188 457.035156 287.675781 L 52.390625 287.675781 C 62.605469 269.453125 81.886719 258.15625 102.816406 258.15625 Z M 466.230469 258.15625 "/>
<path style=" stroke:none;fill-rule:nonzero;fill:rgb(87.843137%,60.784314%,17.647059%);fill-opacity:1;" d="M 45.777344 77.863281 C 49.921875 87.421875 52.984375 97.324219 54.972656 107.386719 L 459.617188 107.386719 C 449.402344 89.164062 430.121094 77.863281 409.1875 77.863281 Z M 45.777344 77.863281 "/>
<path style=" stroke:none;fill-rule:nonzero;fill:rgb(87.843137%,60.784314%,17.647059%);fill-opacity:1;" d="M 99.898438 332.980469 L 99.898438 373.800781 C 90.34375 373.324219 81.199219 370.496094 73.21875 365.730469 C 64.414062 360.5 57 352.933594 51.949219 343.59375 C 50.089844 340.1875 48.617188 336.621094 47.507812 332.980469 Z M 99.898438 332.980469 "/>
<path style=" stroke:none;fill-rule:nonzero;fill:rgb(100%,100%,100%);fill-opacity:1;" d="M 157.367188 425.207031 C 152.019531 425.207031 147.683594 420.871094 147.683594 415.523438 L 147.683594 390.984375 C 147.683594 385.636719 152.019531 381.300781 157.367188 381.300781 C 162.714844 381.300781 167.054688 385.636719 167.054688 390.984375 L 167.054688 415.523438 C 167.054688 420.871094 162.71875 425.207031 157.367188 425.207031 Z M 157.367188 425.207031 "/>
<path style=" stroke:none;fill-rule:nonzero;fill:rgb(100%,100%,100%);fill-opacity:1;" d="M 167.054688 362.882812 C 167.054688 368.230469 162.71875 372.566406 157.371094 372.566406 C 152.019531 372.566406 147.683594 368.230469 147.683594 362.882812 C 147.683594 357.535156 152.019531 353.199219 157.371094 353.199219 C 162.71875 353.199219 167.054688 357.535156 167.054688 362.882812 Z M 167.054688 362.882812 "/>
<path style=" stroke:none;fill-rule:nonzero;fill:rgb(20%,20%,20%);fill-opacity:1;" d="M 472.769531 267.84375 L 486.171875 267.84375 C 500.414062 267.84375 512 256.257812 512 242.015625 C 512 235.136719 509.320312 228.65625 504.421875 223.734375 C 499.53125 218.867188 493.050781 216.1875 486.171875 216.1875 L 471.175781 216.1875 C 495.910156 198 512 168.714844 512 135.726562 C 512 80.679688 467.214844 35.890625 412.164062 35.890625 L 25.832031 35.890625 C 11.589844 35.890625 0.00390625 47.476562 0.00390625 61.71875 C 0.00390625 75.960938 11.589844 87.546875 25.832031 87.546875 L 39.238281 87.546875 C 50.957031 118.492188 50.957031 152.960938 39.238281 183.902344 L 25.832031 183.902344 C 11.589844 183.902344 0.00390625 195.488281 0.00390625 209.730469 C 0.00390625 223.972656 11.589844 235.558594 25.832031 235.558594 L 40.828125 235.558594 C 16.09375 253.75 0 283.039062 0 316.027344 C 0 342.671875 10.386719 367.742188 29.246094 386.617188 C 45.808594 403.183594 67.175781 413.199219 90.210938 415.390625 L 90.210938 466.421875 C 90.210938 469.832031 92.003906 472.988281 94.929688 474.734375 C 97.855469 476.484375 101.484375 476.566406 104.484375 474.949219 L 143.082031 454.175781 L 181.679688 474.949219 C 183.113281 475.722656 184.691406 476.105469 186.269531 476.105469 C 187.988281 476.105469 189.710938 475.648438 191.238281 474.734375 C 194.164062 472.988281 195.953125 469.828125 195.953125 466.421875 L 195.953125 415.851562 L 486.171875 415.851562 C 500.410156 415.851562 511.996094 404.265625 511.996094 390.023438 C 511.996094 383.121094 509.3125 376.636719 504.421875 371.742188 C 499.53125 366.875 493.050781 364.195312 486.171875 364.195312 L 472.769531 364.195312 C 468.816406 353.777344 466.148438 342.929688 464.859375 331.835938 C 464.234375 326.609375 463.917969 321.289062 463.917969 316.027344 C 463.917969 310.761719 464.234375 305.445312 464.859375 300.191406 C 466.152344 289.109375 468.820312 278.261719 472.769531 267.84375 Z M 65.085938 162.371094 L 164.460938 162.371094 C 169.808594 162.371094 174.144531 158.035156 174.144531 152.6875 C 174.144531 147.339844 169.808594 143 164.460938 143 L 67.210938 143 C 67.4375 138.15625 67.4375 133.304688 67.210938 128.460938 L 115.164062 128.460938 C 120.515625 128.460938 124.851562 124.121094 124.851562 118.773438 C 124.851562 113.425781 120.515625 109.089844 115.164062 109.089844 L 65.085938 109.089844 C 63.824219 101.816406 62.074219 94.613281 59.777344 87.550781 L 409.183594 87.550781 C 426.878906 87.550781 443.109375 97.214844 451.539062 112.769531 C 459.332031 127.144531 459.332031 144.308594 451.539062 158.6875 C 443.105469 174.242188 426.878906 183.90625 409.183594 183.90625 L 59.777344 183.90625 C 62.074219 176.84375 63.824219 169.640625 65.085938 162.371094 Z M 25.832031 216.1875 C 22.273438 216.1875 19.375 213.292969 19.375 209.730469 C 19.375 206.171875 22.273438 203.273438 25.832031 203.273438 L 409.183594 203.273438 C 433.992188 203.273438 456.746094 189.726562 468.570312 167.917969 C 479.496094 147.761719 479.496094 123.691406 468.570312 103.535156 C 456.746094 81.726562 433.992188 68.179688 409.183594 68.179688 L 25.832031 68.179688 C 22.273438 68.179688 19.375 65.28125 19.375 61.722656 C 19.375 58.160156 22.273438 55.265625 25.832031 55.265625 L 412.167969 55.265625 C 456.535156 55.265625 492.628906 91.359375 492.628906 135.726562 C 492.628906 180.078125 456.5625 216.164062 412.21875 216.191406 L 25.832031 216.191406 Z M 42.945312 372.925781 C 27.742188 357.710938 19.371094 337.503906 19.371094 316.027344 C 19.371094 271.671875 55.441406 235.585938 99.789062 235.558594 L 412.167969 235.558594 C 412.183594 235.558594 412.199219 235.558594 412.21875 235.558594 L 486.171875 235.558594 C 487.894531 235.558594 489.523438 236.234375 490.726562 237.433594 C 491.953125 238.664062 492.628906 240.296875 492.628906 242.015625 C 492.628906 245.574219 489.734375 248.472656 486.171875 248.472656 L 102.820312 248.472656 C 78.007812 248.472656 55.25 262.027344 43.441406 283.832031 C 38.101562 293.664062 35.28125 304.796875 35.28125 316.027344 C 35.28125 327.238281 38.101562 338.367188 43.433594 348.203125 C 49.21875 358.902344 57.808594 367.84375 68.257812 374.046875 C 75.015625 378.082031 82.480469 380.878906 90.210938 382.347656 L 90.210938 395.890625 C 72.363281 393.777344 55.84375 385.820312 42.945312 372.925781 Z M 176.585938 450.210938 L 147.675781 434.648438 C 146.242188 433.878906 144.664062 433.492188 143.085938 433.492188 C 141.503906 433.492188 139.925781 433.878906 138.492188 434.648438 L 109.582031 450.210938 L 109.582031 342.664062 L 176.585938 342.664062 Z M 490.738281 385.453125 C 491.957031 386.671875 492.628906 388.296875 492.628906 390.023438 C 492.628906 393.582031 489.730469 396.480469 486.171875 396.480469 L 195.957031 396.480469 L 195.957031 383.566406 L 486.171875 383.566406 C 487.894531 383.566406 489.519531 384.242188 490.738281 385.453125 Z M 195.957031 364.195312 L 195.957031 342.664062 L 227.597656 342.664062 C 232.945312 342.664062 237.28125 338.328125 237.28125 332.980469 C 237.28125 327.632812 232.945312 323.296875 227.597656 323.296875 L 99.898438 323.296875 C 94.546875 323.296875 90.210938 327.632812 90.210938 332.980469 L 90.210938 362.488281 C 85.992188 361.34375 81.929688 359.648438 78.167969 357.402344 C 70.710938 352.976562 64.59375 346.609375 60.46875 338.980469 C 56.664062 331.960938 54.652344 324.023438 54.652344 316.023438 C 54.652344 308.015625 56.664062 300.078125 60.46875 293.066406 C 68.894531 277.507812 85.121094 267.84375 102.820312 267.84375 L 452.214844 267.84375 C 449.917969 274.886719 448.136719 282.085938 446.871094 289.382812 L 396.835938 289.382812 C 391.488281 289.382812 387.152344 293.71875 387.152344 299.066406 C 387.152344 304.414062 391.488281 308.753906 396.835938 308.753906 L 444.738281 308.753906 C 444.621094 311.179688 444.550781 313.605469 444.550781 316.023438 C 444.550781 318.441406 444.621094 320.867188 444.738281 323.292969 L 347.546875 323.292969 C 342.195312 323.292969 337.859375 327.628906 337.859375 332.976562 C 337.859375 338.324219 342.195312 342.664062 347.546875 342.664062 L 446.871094 342.664062 C 448.136719 349.960938 449.917969 357.152344 452.214844 364.191406 Z M 195.957031 364.195312 "/>
<path style=" stroke:none;fill-rule:nonzero;fill:rgb(20%,20%,20%);fill-opacity:1;" d="M 207.667969 152.683594 C 207.667969 158.03125 203.332031 162.367188 197.984375 162.367188 C 192.636719 162.367188 188.300781 158.03125 188.300781 152.683594 C 188.300781 147.332031 192.636719 142.996094 197.984375 142.996094 C 203.332031 142.996094 207.667969 147.332031 207.667969 152.683594 Z M 207.667969 152.683594 "/>
</g>
</svg>
